<svg xmlns="http://www.w3.org/2000/svg" xmlns:xlink="http://www.w3.org/1999/xlink" viewBox="0 0 50.666664 80" id="svg40" width="50.667" height="80"><defs id="defs44"><linearGradient id="linearGradient880"><stop offset="0" id="stop876" stop-color="#00d4d3"/><stop id="stop884" offset=".646" stop-color="#31cb98"/><stop offset="1" id="stop878" stop-color="#86fac5"/></linearGradient><linearGradient xlink:href="#linearGradient880" id="linearGradient900" gradientUnits="userSpaceOnUse" x1="13" y1="2" x2="51" y2="62" gradientTransform="matrix(1.33333 0 0 1.33333 -17.333 -2.667)"/></defs><style id="style2">.st0{display:none}.st1{display:inline}.st2{fill:none;stroke:#b3b3b3;stroke-width:.1;stroke-miterlimit:10}</style><g class="st0" id="g28" transform="translate(-13 -2)"><g class="st1" id="g26"><path class="st2" id="rect4" d="M2 2h60v60H2z"/><path class="st2" id="line6" d="M32 2v60"/><path class="st2" id="line8" d="M62 32H2"/><path class="st2" id="line10" d="M2 2l60 60"/><path class="st2" id="rect12" d="M10 10h44v44H10z"/><path class="st2" id="line14" d="M62 2L2 62"/><path class="st2" id="line16" d="M2 32L32 2"/><path class="st2" id="line18" d="M32 2l30 30"/><path class="st2" id="line20" d="M62 32L32 62"/><path class="st2" id="line22" d="M32 62L2 32"/><circle class="st2" cx="32" cy="32" r="21" id="circle24"/></g></g><path id="path30" d="M0 0v38.666h8v2.668H0V80h2.666c0-1.6 1.335-4 2.668-4C6.801 76 8 77.2 8 78.666V80h8v-1.334C16 77.199 17.2 76 18.666 76c1.467 0 2.668 1.2 2.668 2.666V80h8v-1.334c0-1.467 1.2-2.666 2.666-2.666 1.467 0 2.666 1.2 2.666 2.666V80h8v-1.334A2.675 2.675 0 0 1 45.334 76C46.667 76 48 78.4 48 80h2.666V41.334h-8v-2.668h8V0H48c0 1.6-1.333 4-2.666 4a2.675 2.675 0 0 1-2.668-2.666V0h-8v1.334C34.666 2.801 33.466 4 32 4a2.673 2.673 0 0 1-2.666-2.666V0h-8v1.334A2.675 2.675 0 0 1 18.666 4 2.673 2.673 0 0 1 16 1.334V0H8v1.334C8 2.801 6.8 4 5.334 4 4.001 4 2.666 1.6 2.666 0H0zm24 9.334h2.666V12C29.599 12 32 14.4 32 17.334h-2.666a2.677 2.677 0 0 0-2.668-2.668V20C29.599 20 32 22.4 32 25.334c0 2.933-2.4 5.332-5.334 5.332v2.668H24v-2.668c-2.933 0-5.334-2.399-5.334-5.332h2.668c0 1.467 1.2 2.666 2.666 2.666v-5.334c-2.933 0-5.334-2.399-5.334-5.332S21.066 12 24 12V9.334zm0 5.332a2.675 2.675 0 0 0-2.666 2.668c0 1.467 1.2 2.666 2.666 2.666v-5.334zm2.666 8V28c1.467 0 2.668-1.2 2.668-2.666a2.677 2.677 0 0 0-2.668-2.668zm-16 16H16v2.668h-5.334v-2.668zm8 0H24v2.668h-5.334v-2.668zm8 0H32v2.668h-5.334v-2.668zm8 0H40v2.668h-5.334v-2.668zM32 48.934l1.867 1.867-15.066 15.066L16.934 64 32 48.934zM20.666 50c.667 0 1.334.267 1.867.8 1.067 1.067 1.067 2.667 0 3.733-1.066 1.067-2.666 1.067-3.732 0-1.067-1.066-1.067-2.799 0-3.732.533-.534 1.198-.801 1.865-.801zM30 59.334c.667 0 1.334.265 1.867.799 1.067 1.066 1.067 2.8 0 3.734-1.066 1.067-2.668 1.067-3.734 0-1.067-1.066-1.067-2.668 0-3.734.533-.534 1.2-.799 1.867-.799z" fill="url(#linearGradient900)"/></svg>