<svg xmlns="http://www.w3.org/2000/svg" xmlns:xlink="http://www.w3.org/1999/xlink" height="80" width="50.667" id="svg40" viewBox="0 0 50.666664 80"><defs id="defs44"><linearGradient id="linearGradient874"><stop id="stop870" offset="0" stop-color="#9fa8b5"/><stop id="stop872" offset="1" stop-color="#e25f08"/></linearGradient><linearGradient id="linearGradient880"><stop stop-color="#00d4d3" id="stop876" offset="0"/><stop stop-color="#31cb98" offset=".646" id="stop884"/><stop stop-color="#86fac5" id="stop878" offset="1"/></linearGradient><linearGradient gradientTransform="translate(-17.333 -2.667) scale(1.33333)" y2="62" x2="51" y1="2" x1="13" gradientUnits="userSpaceOnUse" id="linearGradient900" xlink:href="#linearGradient880"/><linearGradient gradientUnits="userSpaceOnUse" y2="41.334" x2="24" y1="38.666" x1="24" id="linearGradient876" xlink:href="#linearGradient874"/></defs><style id="style2">.st0{display:none}.st1{display:inline}.st2{fill:none;stroke:#b3b3b3;stroke-width:.1;stroke-miterlimit:10}</style><g transform="translate(-13 -2)" id="g28" class="st0"><g id="g26" class="st1"><path d="M2 2h60v60H2z" id="rect4" class="st2"/><path d="M32 2v60" id="line6" class="st2"/><path d="M62 32H2" id="line8" class="st2"/><path d="M2 2l60 60" id="line10" class="st2"/><path d="M10 10h44v44H10z" id="rect12" class="st2"/><path d="M62 2L2 62" id="line14" class="st2"/><path d="M2 32L32 2" id="line16" class="st2"/><path d="M32 2l30 30" id="line18" class="st2"/><path d="M62 32L32 62" id="line20" class="st2"/><path d="M32 62L2 32" id="line22" class="st2"/><circle id="circle24" r="21" cy="32" cx="32" class="st2"/></g></g><path d="M0 0v38.666h8v2.668H0V80h2.666c0-1.6 1.335-4 2.668-4C6.801 76 8 77.2 8 78.666V80h8v-1.334C16 77.199 17.2 76 18.666 76c1.467 0 2.668 1.2 2.668 2.666V80h8v-1.334c0-1.467 1.2-2.666 2.666-2.666 1.467 0 2.666 1.2 2.666 2.666V80h8v-1.334A2.675 2.675 0 0 1 45.334 76C46.667 76 48 78.4 48 80h2.666V41.334h-8v-2.668h8V0H48c0 1.6-1.333 4-2.666 4a2.675 2.675 0 0 1-2.668-2.666V0h-8v1.334C34.666 2.801 33.466 4 32 4a2.673 2.673 0 0 1-2.666-2.666V0h-8v1.334A2.675 2.675 0 0 1 18.666 4 2.673 2.673 0 0 1 16 1.334V0H8v1.334C8 2.801 6.8 4 5.334 4 4.001 4 2.666 1.6 2.666 0zm24 9.334h2.666V12C29.599 12 32 14.4 32 17.334h-2.666a2.677 2.677 0 0 0-2.668-2.668V20C29.599 20 32 22.4 32 25.334c0 2.933-2.4 5.332-5.334 5.332v2.668H24v-2.668c-2.933 0-5.334-2.399-5.334-5.332h2.668c0 1.467 1.2 2.666 2.666 2.666v-5.334c-2.933 0-5.334-2.399-5.334-5.332S21.066 12 24 12zm0 5.332a2.675 2.675 0 0 0-2.666 2.668c0 1.467 1.2 2.666 2.666 2.666zm2.666 8V28c1.467 0 2.668-1.2 2.668-2.666a2.677 2.677 0 0 0-2.668-2.668zm-16 16H16v2.668h-5.334zm8 0H24v2.668h-5.334zm8 0H32v2.668h-5.334zm8 0H40v2.668h-5.334zM32 48.934l1.867 1.867-15.066 15.066L16.934 64zM20.666 50c.667 0 1.334.268 1.867.8 1.067 1.068 1.067 2.667 0 3.733-1.066 1.067-2.666 1.067-3.732 0-1.067-1.066-1.067-2.8 0-3.732.533-.534 1.198-.801 1.865-.801zM30 59.334c.667 0 1.334.265 1.867.799 1.067 1.066 1.067 2.8 0 3.734-1.066 1.067-2.668 1.067-3.734 0-1.067-1.066-1.067-2.668 0-3.734.533-.534 1.2-.799 1.867-.799z" id="path30" fill="url(#linearGradient876)"/></svg>